<?xml version="1.0" standalone="no"?>
<!DOCTYPE svg PUBLIC "-//W3C//DTD SVG 20010904//EN"
 "http://www.w3.org/TR/2001/REC-SVG-20010904/DTD/svg10.dtd">
<svg version="1.0" xmlns="http://www.w3.org/2000/svg"
 width="194.000000pt" height="194.000000pt" viewBox="0 0 194.000000 194.000000"
 preserveAspectRatio="xMidYMid meet">
<metadata>
Created by potrace 1.11, written by Peter Selinger 2001-2013
</metadata>
<g transform="translate(0.000000,194.000000) scale(0.100000,-0.100000)"
fill="#000000" stroke="none">
<path d="M1087 1803 c-135 -28 -316 -137 -392 -237 -50 -65 -92 -144 -121
-223 -26 -71 -28 -90 -28 -218 0 -127 2 -147 27 -214 15 -40 38 -94 52 -118
14 -25 25 -49 25 -54 0 -15 -44 -10 -70 8 -57 40 -82 84 -104 188 -16 72 -72
237 -92 273 -32 54 -61 72 -117 74 -52 1 -78 -15 -113 -65 -18 -28 -36 -39
-78 -51 -84 -25 -79 -36 16 -34 130 2 178 -5 195 -27 29 -39 53 -95 79 -182
21 -73 26 -108 25 -201 0 -123 11 -169 56 -230 63 -87 211 -193 356 -256 41
-17 96 -46 123 -63 68 -44 90 -51 178 -57 75 -5 77 -5 86 19 8 21 16 25 50 25
22 0 56 -7 75 -14 19 -8 35 -13 35 -10 0 31 -97 136 -139 152 -49 18 4 19 59
1 30 -10 56 -16 58 -15 5 6 -75 83 -120 116 -27 18 -48 36 -48 39 0 3 35 6 78
7 94 0 140 7 212 32 361 125 555 501 445 862 -68 221 -262 408 -485 465 -85
23 -237 26 -323 8z"/>
</g>
</svg>
